# Blender 4.4.3
# www.blender.org
o Panel.PushButton.Original
v 0.000000 -0.262868 0.768628
v -0.149953 -0.262868 0.753858
v -0.294142 -0.262868 0.710120
v -0.427026 -0.262868 0.639092
v -0.543505 -0.262868 0.543501
v -0.639088 -0.262868 0.427026
v -0.710117 -0.262868 0.294142
v -0.753858 -0.262868 0.149952
v -0.768628 -0.262868 0.000000
v -0.753858 -0.262868 -0.149952
v -0.710117 -0.262868 -0.294142
v -0.639088 -0.262868 -0.427026
v -0.543505 -0.262868 -0.543501
v -0.427026 -0.262868 -0.639092
v -0.294142 -0.262868 -0.710120
v -0.149953 -0.262868 -0.753858
v 0.000000 -0.262868 -0.768628
v 0.149953 -0.262868 -0.753858
v 0.294142 -0.262868 -0.710120
v 0.427026 -0.262868 -0.639092
v 0.543505 -0.262868 -0.543501
v 0.639088 -0.262868 -0.427026
v 0.710117 -0.262868 -0.294142
v 0.753858 -0.262868 -0.149952
v 0.768628 -0.262868 0.000000
v 0.753858 -0.262868 0.149952
v 0.710117 -0.262868 0.294142
v 0.639088 -0.262868 0.427026
v 0.543505 -0.262868 0.543501
v 0.427026 -0.262868 0.639092
v 0.294142 -0.262868 0.710120
v 0.149953 -0.262868 0.753858
v 0.000000 -0.145191 0.856580
v -0.167112 -0.145191 0.840122
v -0.327798 -0.145191 0.791377
v -0.475888 -0.145191 0.712219
v -0.605696 -0.145191 0.605693
v -0.712219 -0.145191 0.475890
v -0.791373 -0.145191 0.327800
v -0.840122 -0.145191 0.167111
v -0.856580 -0.145191 0.000000
v -0.840122 -0.145191 -0.167111
v -0.791373 -0.145191 -0.327798
v -0.712219 -0.145191 -0.475890
v -0.605696 -0.145191 -0.605693
v -0.475888 -0.145191 -0.712219
v -0.327798 -0.145191 -0.791377
v -0.167112 -0.145191 -0.840122
v 0.000000 -0.145191 -0.856580
v 0.167112 -0.145191 -0.840122
v 0.327798 -0.145191 -0.791377
v 0.475888 -0.145191 -0.712219
v 0.605696 -0.145191 -0.605693
v 0.712219 -0.145191 -0.475890
v 0.791373 -0.145191 -0.327798
v 0.840122 -0.145191 -0.167111
v 0.856580 -0.145191 0.000000
v 0.840122 -0.145191 0.167111
v 0.791373 -0.145191 0.327800
v 0.712219 -0.145191 0.475890
v 0.605696 -0.145191 0.605693
v 0.475888 -0.145191 0.712219
v 0.327798 -0.145191 0.791377
v 0.167112 -0.145191 0.840122
v 0.000000 -0.262868 0.000000
v 0.000000 -0.000000 0.856580
v -0.167112 -0.000000 0.840122
v -0.327798 -0.000000 0.791377
v -0.475888 -0.000000 0.712219
v -0.605696 -0.000000 0.605693
v -0.712219 -0.000000 0.475890
v -0.791373 -0.000000 0.327800
v -0.840122 -0.000000 0.167111
v -0.856580 -0.000000 0.000000
v -0.840122 0.000000 -0.167111
v -0.791373 0.000000 -0.327798
v -0.712219 0.000000 -0.475890
v -0.605696 0.000000 -0.605693
v -0.475888 -0.000000 -0.712219
v -0.327798 -0.000000 -0.791377
v -0.167112 -0.000000 -0.840122
v 0.000000 -0.000000 -0.856580
v 0.167112 -0.000000 -0.840122
v 0.327798 -0.000000 -0.791377
v 0.475888 -0.000000 -0.712219
v 0.605696 0.000000 -0.605693
v 0.712219 0.000000 -0.475890
v 0.791373 0.000000 -0.327798
v 0.840122 0.000000 -0.167111
v 0.856580 -0.000000 0.000000
v 0.840122 -0.000000 0.167111
v 0.791373 -0.000000 0.327800
v 0.712219 -0.000000 0.475890
v 0.605696 -0.000000 0.605693
v 0.475888 -0.000000 0.712219
v 0.327798 -0.000000 0.791377
v 0.167112 -0.000000 0.840122
vn -0.0000 -0.8828 0.4698
vn -0.0916 -0.8828 0.4608
vn -0.1798 -0.8828 0.4340
vn -0.2610 -0.8828 0.3906
vn -0.3322 -0.8828 0.3322
vn -0.3906 -0.8828 0.2610
vn -0.4340 -0.8828 0.1798
vn -0.4608 -0.8828 0.0917
vn -0.4698 -0.8828 -0.0000
vn -0.4608 -0.8828 -0.0917
vn -0.4340 -0.8828 -0.1798
vn -0.3906 -0.8828 -0.2610
vn -0.3322 -0.8828 -0.3322
vn -0.2610 -0.8828 -0.3906
vn -0.1798 -0.8828 -0.4340
vn -0.0916 -0.8828 -0.4608
vn -0.0000 -0.8828 -0.4698
vn 0.0916 -0.8828 -0.4608
vn 0.1798 -0.8828 -0.4340
vn 0.2610 -0.8828 -0.3906
vn 0.3322 -0.8828 -0.3322
vn 0.3906 -0.8828 -0.2610
vn 0.4340 -0.8828 -0.1798
vn 0.4608 -0.8828 -0.0917
vn 0.4698 -0.8828 -0.0000
vn 0.4608 -0.8828 0.0917
vn 0.4340 -0.8828 0.1798
vn 0.3906 -0.8828 0.2610
vn 0.3322 -0.8828 0.3322
vn 0.2610 -0.8828 0.3906
vn 0.1798 -0.8828 0.4340
vn 0.0916 -0.8828 0.4608
vn -0.0000 -0.3097 0.9508
vn -0.1855 -0.3097 0.9326
vn -0.3639 -0.3097 0.8785
vn -0.5283 -0.3097 0.7906
vn -0.6723 -0.3097 0.6723
vn -0.7906 -0.3097 0.5282
vn -0.8785 -0.3097 0.3639
vn -0.9326 -0.3097 0.1855
vn -0.9508 -0.3097 -0.0000
vn -0.9326 -0.3097 -0.1855
vn -0.8785 -0.3097 -0.3639
vn -0.7906 -0.3097 -0.5282
vn -0.6723 -0.3097 -0.6723
vn -0.5283 -0.3097 -0.7906
vn -0.3639 -0.3097 -0.8785
vn -0.1855 -0.3097 -0.9326
vn -0.0000 -0.3097 -0.9508
vn 0.1855 -0.3097 -0.9326
vn 0.3639 -0.3097 -0.8785
vn 0.5283 -0.3097 -0.7906
vn 0.6723 -0.3097 -0.6723
vn 0.7906 -0.3097 -0.5282
vn 0.8785 -0.3097 -0.3639
vn 0.9326 -0.3097 -0.1855
vn 0.9508 -0.3097 -0.0000
vn 0.9326 -0.3097 0.1855
vn 0.8785 -0.3097 0.3639
vn 0.7906 -0.3097 0.5282
vn 0.6723 -0.3097 0.6723
vn 0.5283 -0.3097 0.7906
vn 0.3639 -0.3097 0.8785
vn 0.1855 -0.3097 0.9326
vn -0.0000 -1.0000 -0.0000
vn -0.0000 -0.0000 1.0000
vn -0.1951 -0.0000 0.9808
vn -0.3827 -0.0000 0.9239
vn -0.5556 -0.0000 0.8315
vn -0.7071 -0.0000 0.7071
vn -0.8315 -0.0000 0.5556
vn -0.9239 -0.0000 0.3827
vn -0.9808 -0.0000 0.1951
vn -1.0000 -0.0000 -0.0000
vn -0.9808 -0.0000 -0.1951
vn -0.9239 -0.0000 -0.3827
vn -0.8315 -0.0000 -0.5556
vn -0.7071 -0.0000 -0.7071
vn -0.5556 -0.0000 -0.8315
vn -0.3827 -0.0000 -0.9239
vn -0.1951 -0.0000 -0.9808
vn -0.0000 -0.0000 -1.0000
vn 0.1951 -0.0000 -0.9808
vn 0.3827 -0.0000 -0.9239
vn 0.5556 -0.0000 -0.8315
vn 0.7071 -0.0000 -0.7071
vn 0.8315 -0.0000 -0.5556
vn 0.9239 -0.0000 -0.3827
vn 0.9808 -0.0000 -0.1951
vn 1.0000 -0.0000 -0.0000
vn 0.9808 -0.0000 0.1951
vn 0.9239 -0.0000 0.3827
vn 0.8315 -0.0000 0.5556
vn 0.7071 -0.0000 0.7071
vn 0.5556 -0.0000 0.8315
vn 0.3827 -0.0000 0.9239
vn 0.1951 -0.0000 0.9808
vt 0.434301 0.927750
vt 0.434070 0.928452
vt 0.433864 0.927990
vt 0.433080 0.922924
vt 0.433704 0.922545
vt 0.433562 0.923024
vt 0.433391 0.928156
vt 0.433509 0.928646
vt 0.434021 0.923204
vt 0.434250 0.922762
vt 0.430309 0.926558
vt 0.430002 0.927275
vt 0.429817 0.926693
vt 0.432893 0.928233
vt 0.432924 0.928736
vt 0.434440 0.923467
vt 0.434745 0.923076
vt 0.429707 0.926127
vt 0.430197 0.926059
vt 0.432328 0.928721
vt 0.432385 0.928213
vt 0.435174 0.923479
vt 0.434797 0.923811
vt 0.429676 0.925553
vt 0.430167 0.925564
vt 0.431877 0.928110
vt 0.431736 0.928611
vt 0.435092 0.924211
vt 0.435522 0.923956
vt 0.430213 0.925074
vt 0.429734 0.924982
vt 0.431377 0.927918
vt 0.431159 0.928410
vt 0.435773 0.924492
vt 0.435300 0.924663
vt 0.429892 0.924429
vt 0.430351 0.924604
vt 0.430576 0.928119
vt 0.430897 0.927627
vt 0.435915 0.925071
vt 0.435418 0.925148
vt 0.430149 0.923908
vt 0.430573 0.924167
vt 0.435455 0.925644
vt 0.435957 0.925662
vt 0.430864 0.923771
vt 0.430499 0.923440
vt 0.435876 0.926246
vt 0.435386 0.926135
vt 0.430934 0.923048
vt 0.431231 0.923443
vt 0.435236 0.926607
vt 0.435693 0.926807
vt 0.431646 0.923179
vt 0.431426 0.922735
vt 0.435000 0.927045
vt 0.435413 0.927324
vt 0.431971 0.922533
vt 0.432105 0.923008
vt 0.435038 0.927780
vt 0.434680 0.927426
vt 0.432545 0.922430
vt 0.432588 0.922925
vt 0.434586 0.928161
vt 0.433129 0.922432
vt 0.430511 0.927054
vt 0.432801 0.925542
vt 0.429205 0.924886
vt 0.430952 0.928944
vt 0.436305 0.924297
vt 0.429382 0.924238
vt 0.430322 0.928662
vt 0.436486 0.924984
vt 0.429677 0.923625
vt 0.436504 0.925686
vt 0.430082 0.923070
vt 0.436416 0.926366
vt 0.430593 0.922594
vt 0.436205 0.927023
vt 0.431192 0.922250
vt 0.435877 0.927631
vt 0.431821 0.922007
vt 0.435439 0.928170
vt 0.432493 0.921881
vt 0.434908 0.928618
vt 0.433179 0.921881
vt 0.434303 0.928961
vt 0.433857 0.922011
vt 0.433647 0.929187
vt 0.434499 0.922265
vt 0.429308 0.926819
vt 0.432964 0.929292
vt 0.435083 0.922634
vt 0.429184 0.926194
vt 0.432276 0.929278
vt 0.435590 0.923106
vt 0.429144 0.925544
vt 0.431602 0.929156
vt 0.436002 0.923666
vt 0.429480 0.927423
s 1
f 26/1/26 59/2/59 27/3/27
f 13/4/13 46/5/46 14/6/14
f 28/7/28 59/2/59 60/8/60
f 15/9/15 46/5/46 47/10/47
f 2/11/2 33/12/33 34/13/34
f 29/14/29 60/8/60 61/15/61
f 16/16/16 47/10/47 48/17/48
f 2/11/2 35/18/35 3/19/3
f 29/14/29 62/20/62 30/21/30
f 16/16/16 49/22/49 17/23/17
f 3/19/3 36/24/36 4/25/4
f 31/26/31 62/20/62 63/27/63
f 18/28/18 49/22/49 50/29/50
f 5/30/5 36/24/36 37/31/37
f 32/32/32 63/27/63 64/33/64
f 18/28/18 51/34/51 19/35/19
f 5/30/5 38/36/38 6/37/6
f 32/32/32 33/38/33 1/39/1
f 19/35/19 52/40/52 20/41/20
f 6/37/6 39/42/39 7/43/7
f 21/44/21 52/40/52 53/45/53
f 8/46/8 39/42/39 40/47/40
f 21/44/21 54/48/54 22/49/22
f 8/46/8 41/50/41 9/51/9
f 23/52/23 54/48/54 55/53/55
f 10/54/10 41/50/41 42/55/42
f 24/56/24 55/53/55 56/57/56
f 10/54/10 43/58/43 11/59/11
f 24/56/24 57/60/57 25/61/25
f 11/59/11 44/62/44 12/63/12
f 26/1/26 57/60/57 58/64/58
f 13/4/13 44/62/44 45/65/45
f 1/66/1 2/11/2 65/67/65
f 17/23/17 18/28/18 65/67/65
f 32/32/32 1/39/1 65/67/65
f 16/16/16 17/23/17 65/67/65
f 19/35/19 20/41/20 65/67/65
f 27/3/27 28/7/28 65/67/65
f 20/41/20 21/44/21 65/67/65
f 28/7/28 29/14/29 65/67/65
f 21/44/21 22/49/22 65/67/65
f 29/14/29 30/21/30 65/67/65
f 22/49/22 23/52/23 65/67/65
f 30/21/30 31/26/31 65/67/65
f 23/52/23 24/56/24 65/67/65
f 31/26/31 32/32/32 65/67/65
f 24/56/24 25/61/25 65/67/65
f 25/61/25 26/1/26 65/67/65
f 18/28/18 19/35/19 65/67/65
f 26/1/26 27/3/27 65/67/65
f 12/63/12 13/4/13 65/67/65
f 5/30/5 6/37/6 65/67/65
f 13/4/13 14/6/14 65/67/65
f 6/37/6 7/43/7 65/67/65
f 14/6/14 15/9/15 65/67/65
f 7/43/7 8/46/8 65/67/65
f 15/9/15 16/16/16 65/67/65
f 8/46/8 9/51/9 65/67/65
f 9/51/9 10/54/10 65/67/65
f 2/11/2 3/19/3 65/67/65
f 10/54/10 11/59/11 65/67/65
f 3/19/3 4/25/4 65/67/65
f 11/59/11 12/63/12 65/67/65
f 4/25/4 5/30/5 65/67/65
f 36/24/36 70/68/70 37/31/37
f 63/27/63 97/69/97 64/33/64
f 50/29/50 84/70/84 51/34/51
f 37/31/37 71/71/71 38/36/38
f 64/33/64 66/72/66 33/38/33
f 51/34/51 85/73/85 52/40/52
f 38/36/38 72/74/72 39/42/39
f 53/45/53 85/73/85 86/75/86
f 39/42/39 73/76/73 40/47/40
f 53/45/53 87/77/87 54/48/54
f 40/47/40 74/78/74 41/50/41
f 54/48/54 88/79/88 55/53/55
f 42/55/42 74/78/74 75/80/75
f 55/53/55 89/81/89 56/57/56
f 42/55/42 76/82/76 43/58/43
f 56/57/56 90/83/90 57/60/57
f 43/58/43 77/84/77 44/62/44
f 57/60/57 91/85/91 58/64/58
f 44/62/44 78/86/78 45/65/45
f 58/64/58 92/87/92 59/2/59
f 45/65/45 79/88/79 46/5/46
f 59/2/59 93/89/93 60/8/60
f 46/5/46 80/90/80 47/10/47
f 33/12/33 67/91/67 34/13/34
f 60/8/60 94/92/94 61/15/61
f 47/10/47 81/93/81 48/17/48
f 34/13/34 68/94/68 35/18/35
f 61/15/61 95/95/95 62/20/62
f 48/17/48 82/96/82 49/22/49
f 35/18/35 69/97/69 36/24/36
f 62/20/62 96/98/96 63/27/63
f 49/22/49 83/99/83 50/29/50
f 26/1/26 58/64/58 59/2/59
f 13/4/13 45/65/45 46/5/46
f 28/7/28 27/3/27 59/2/59
f 15/9/15 14/6/14 46/5/46
f 2/11/2 1/66/1 33/12/33
f 29/14/29 28/7/28 60/8/60
f 16/16/16 15/9/15 47/10/47
f 2/11/2 34/13/34 35/18/35
f 29/14/29 61/15/61 62/20/62
f 16/16/16 48/17/48 49/22/49
f 3/19/3 35/18/35 36/24/36
f 31/26/31 30/21/30 62/20/62
f 18/28/18 17/23/17 49/22/49
f 5/30/5 4/25/4 36/24/36
f 32/32/32 31/26/31 63/27/63
f 18/28/18 50/29/50 51/34/51
f 5/30/5 37/31/37 38/36/38
f 32/32/32 64/33/64 33/38/33
f 19/35/19 51/34/51 52/40/52
f 6/37/6 38/36/38 39/42/39
f 21/44/21 20/41/20 52/40/52
f 8/46/8 7/43/7 39/42/39
f 21/44/21 53/45/53 54/48/54
f 8/46/8 40/47/40 41/50/41
f 23/52/23 22/49/22 54/48/54
f 10/54/10 9/51/9 41/50/41
f 24/56/24 23/52/23 55/53/55
f 10/54/10 42/55/42 43/58/43
f 24/56/24 56/57/56 57/60/57
f 11/59/11 43/58/43 44/62/44
f 26/1/26 25/61/25 57/60/57
f 13/4/13 12/63/12 44/62/44
f 36/24/36 69/97/69 70/68/70
f 63/27/63 96/98/96 97/69/97
f 50/29/50 83/99/83 84/70/84
f 37/31/37 70/68/70 71/71/71
f 64/33/64 97/69/97 66/72/66
f 51/34/51 84/70/84 85/73/85
f 38/36/38 71/71/71 72/74/72
f 53/45/53 52/40/52 85/73/85
f 39/42/39 72/74/72 73/76/73
f 53/45/53 86/75/86 87/77/87
f 40/47/40 73/76/73 74/78/74
f 54/48/54 87/77/87 88/79/88
f 42/55/42 41/50/41 74/78/74
f 55/53/55 88/79/88 89/81/89
f 42/55/42 75/80/75 76/82/76
f 56/57/56 89/81/89 90/83/90
f 43/58/43 76/82/76 77/84/77
f 57/60/57 90/83/90 91/85/91
f 44/62/44 77/84/77 78/86/78
f 58/64/58 91/85/91 92/87/92
f 45/65/45 78/86/78 79/88/79
f 59/2/59 92/87/92 93/89/93
f 46/5/46 79/88/79 80/90/80
f 33/12/33 66/100/66 67/91/67
f 60/8/60 93/89/93 94/92/94
f 47/10/47 80/90/80 81/93/81
f 34/13/34 67/91/67 68/94/68
f 61/15/61 94/92/94 95/95/95
f 48/17/48 81/93/81 82/96/82
f 35/18/35 68/94/68 69/97/69
f 62/20/62 95/95/95 96/98/96
f 49/22/49 82/96/82 83/99/83
