# Blender 4.4.3
# www.blender.org
o Panel.SelectorLever.Original
v 0.000000 0.000000 0.300000
v -0.114806 0.000000 0.277164
v -0.212131 -0.000000 0.212132
v -0.277162 0.000000 0.114805
v -0.300000 0.000000 0.000000
v -0.277162 0.000000 -0.114805
v -0.212131 0.000000 -0.212132
v -0.114806 0.000000 -0.277164
v 0.000000 0.000000 -0.300000
v 0.114806 0.000000 -0.277164
v 0.212131 0.000000 -0.212132
v 0.277162 0.000000 -0.114805
v 0.300000 0.000000 0.000000
v 0.277162 0.000000 0.114805
v 0.212131 -0.000000 0.212132
v 0.114806 0.000000 0.277164
v -0.212131 -1.800000 0.212132
v -0.300000 -1.800000 0.000000
v -0.212131 -1.200000 -0.212132
v -0.114806 -1.200000 -0.277164
v 0.000000 -1.200000 -0.300000
v 0.114806 -1.200000 -0.277164
v 0.212131 -1.200000 -0.212132
v 0.277162 -1.800000 -0.114805
v 0.300000 -1.800000 0.000000
v 0.277162 -1.800000 0.114805
v 0.212131 -1.800000 0.212132
v 0.114806 -1.800000 0.277164
v 0.000000 -1.800000 0.300000
v -0.114806 -1.800000 0.277164
v -0.277162 -1.800000 0.114805
v -0.277162 -1.800000 -0.114805
v -0.212131 -1.800000 -0.212132
v -0.126321 -1.800000 -2.078172
v 0.126321 -1.200000 -2.078172
v -0.126321 -1.200000 -2.078172
v 0.212131 -1.800000 -0.212132
v 0.126321 -1.800000 -2.078172
vn -0.0000 -0.0000 1.0000
vn -0.3827 -0.0000 0.9239
vn -0.7071 -0.0000 0.7071
vn -0.9239 -0.0000 0.3827
vn -1.0000 -0.0000 -0.0000
vn -0.9239 -0.0000 -0.3827
vn -0.7071 -0.0000 -0.7071
vn -0.3827 -0.0000 -0.9239
vn -0.0000 -0.0000 -1.0000
vn 0.3827 -0.0000 -0.9239
vn 0.7071 -0.0000 -0.7071
vn 0.9239 -0.0000 -0.3827
vn 1.0000 -0.0000 -0.0000
vn 0.9239 -0.0000 0.3827
vn 0.7071 -0.0000 0.7071
vn 0.3827 -0.0000 0.9239
vn -0.5276 -0.6657 0.5276
vn -0.7462 -0.6657 -0.0000
vn -0.8403 0.1556 -0.5193
vn -0.2515 0.7538 -0.6071
vn -0.0000 0.7538 -0.6572
vn 0.2515 0.7538 -0.6071
vn 0.8403 0.1556 -0.5193
vn 0.6894 -0.6657 -0.2856
vn 0.7462 -0.6657 -0.0000
vn 0.6894 -0.6657 0.2856
vn 0.5277 -0.6657 0.5276
vn 0.2856 -0.6657 0.6894
vn -0.0000 -0.6657 0.7462
vn -0.2856 -0.6657 0.6894
vn -0.6894 -0.6657 0.2856
vn -0.6894 -0.6657 -0.2856
vn -0.6030 -0.7728 -0.1982
vn -0.5627 -0.5798 -0.5892
vn 0.5627 0.5798 -0.5892
vn -0.5627 0.5798 -0.5892
vn 0.6030 -0.7727 -0.1982
vn 0.5627 -0.5798 -0.5892
vt 0.559477 0.917071
vt 0.563940 0.916636
vt 0.563940 0.917071
vt 0.557246 0.914024
vt 0.563940 0.913589
vt 0.563940 0.914024
vt 0.557246 0.913589
vt 0.563940 0.913153
vt 0.559477 0.917507
vt 0.563940 0.917507
vt 0.557246 0.914459
vt 0.563940 0.914459
vt 0.559477 0.917942
vt 0.563940 0.917942
vt 0.557246 0.914895
vt 0.563940 0.914895
vt 0.563940 0.911412
vt 0.559477 0.910977
vt 0.563940 0.910977
vt 0.557246 0.915330
vt 0.563940 0.915330
vt 0.557246 0.911847
vt 0.563940 0.911847
vt 0.557246 0.915765
vt 0.563940 0.915765
vt 0.557246 0.912283
vt 0.563940 0.912283
vt 0.559477 0.916201
vt 0.563940 0.916201
vt 0.557246 0.912718
vt 0.563940 0.912718
vt 0.559477 0.916636
vt 0.557246 0.913153
vt 0.546115 0.876753
vt 0.545754 0.876511
vt 0.545796 0.869813
vt 0.559477 0.903090
vt 0.557246 0.904029
vt 0.557246 0.903090
vt 0.557246 0.896142
vt 0.559477 0.896142
vt 0.557246 0.910977
vt 0.557246 0.911412
vt 0.557246 0.916201
vt 0.544900 0.876511
vt 0.544538 0.876753
vt 0.544857 0.869813
vt 0.545327 0.876426
vt 0.864033 0.528321
vt 0.863357 0.521300
vt 0.864293 0.521378
vt 0.862190 0.528530
vt 0.862461 0.528189
vt 0.864244 0.528702
vt 0.862070 0.528948
vt 0.864293 0.529134
vt 0.862119 0.529381
vt 0.864173 0.529553
vt 0.862330 0.529762
vt 0.863902 0.529893
vt 0.862670 0.530033
vt 0.863089 0.530153
vt 0.863521 0.530104
vt 0.559477 0.904029
s 1
f 21/1/21 8/2/8 9/3/9
f 30/4/30 1/5/1 2/6/2
f 29/7/29 16/8/16 1/5/1
f 22/9/22 9/3/9 10/10/10
f 17/11/17 2/6/2 3/12/3
f 23/13/23 10/10/10 11/14/11
f 31/15/31 3/12/3 4/16/4
f 12/17/12 23/18/23 11/19/11
f 18/20/18 4/16/4 5/21/5
f 25/22/25 12/17/12 13/23/13
f 32/24/32 5/21/5 6/25/6
f 26/26/26 13/23/13 14/27/14
f 19/28/19 6/25/6 7/29/7
f 27/30/27 14/27/14 15/31/15
f 20/32/20 7/29/7 8/2/8
f 28/33/28 15/31/15 16/8/16
f 19/34/19 20/35/20 36/36/36
f 36/37/36 38/38/38 34/39/34
f 36/37/36 33/40/33 19/41/19
f 38/38/38 23/18/23 37/42/37
f 24/43/24 37/42/37 23/18/23
f 19/28/19 33/44/33 32/24/32
f 22/45/22 23/46/23 35/47/35
f 21/48/21 22/45/22 35/47/35
f 20/35/20 21/48/21 36/36/36
f 35/47/35 36/36/36 21/48/21
f 37/49/37 34/50/34 38/51/38
f 37/49/37 32/52/32 33/53/33
f 24/54/24 18/55/18 32/52/32
f 25/56/25 31/57/31 18/55/18
f 26/58/26 17/59/17 31/57/31
f 27/60/27 30/61/30 17/59/17
f 29/62/29 30/61/30 28/63/28
f 21/1/21 20/32/20 8/2/8
f 30/4/30 29/7/29 1/5/1
f 29/7/29 28/33/28 16/8/16
f 22/9/22 21/1/21 9/3/9
f 17/11/17 30/4/30 2/6/2
f 23/13/23 22/9/22 10/10/10
f 31/15/31 17/11/17 3/12/3
f 12/17/12 24/43/24 23/18/23
f 18/20/18 31/15/31 4/16/4
f 25/22/25 24/43/24 12/17/12
f 32/24/32 18/20/18 5/21/5
f 26/26/26 25/22/25 13/23/13
f 19/28/19 32/24/32 6/25/6
f 27/30/27 26/26/26 14/27/14
f 20/32/20 19/28/19 7/29/7
f 28/33/28 27/30/27 15/31/15
f 36/37/36 35/64/35 38/38/38
f 36/37/36 34/39/34 33/40/33
f 38/38/38 35/64/35 23/18/23
f 37/49/37 33/53/33 34/50/34
f 37/49/37 24/54/24 32/52/32
f 24/54/24 25/56/25 18/55/18
f 25/56/25 26/58/26 31/57/31
f 26/58/26 27/60/27 17/59/17
f 27/60/27 28/63/28 30/61/30
