# Blender 4.4.3
# www.blender.org
o Panel.ButtonKnob.Original
v 0.167112 -0.000000 0.840122
v 0.327798 -0.000000 0.791377
v 0.475888 -0.000000 0.712219
v 0.605696 -0.000000 0.605693
v 0.712219 -0.000000 0.475890
v 0.791373 -0.000000 0.327800
v 0.840122 -0.000000 0.167111
v 0.856580 -0.000000 0.000000
v 0.840122 0.000000 -0.167111
v 0.791373 0.000000 -0.327798
v 0.712219 0.000000 -0.475890
v 0.605696 0.000000 -0.605693
v 0.475888 -0.000000 -0.712219
v 0.327798 -0.000000 -0.791377
v 0.167112 -0.000000 -0.840122
v 0.000000 -0.000000 -0.856580
v -0.167112 -0.000000 -0.840122
v -0.327798 -0.000000 -0.791377
v -0.475888 -0.000000 -0.712219
v -0.605696 0.000000 -0.605693
v -0.712219 0.000000 -0.475890
v -0.791373 0.000000 -0.327798
v -0.840122 0.000000 -0.167111
v -0.856580 -0.000000 0.000000
v -0.840122 -0.000000 0.167111
v -0.791373 -0.000000 0.327800
v -0.712219 -0.000000 0.475890
v -0.605696 -0.000000 0.605693
v -0.475888 -0.000000 0.712219
v -0.327798 -0.000000 0.791377
v -0.167112 -0.000000 0.840122
v 0.000000 -0.000000 0.856580
v 0.149953 -0.747705 0.000000
v 0.000000 -0.747705 0.000000
v -0.149953 -0.747705 0.000000
v 0.149953 -0.388604 0.000000
v -0.149953 -0.388604 0.000000
v 0.149953 -0.747705 0.753858
v 0.149953 -0.747705 -0.753858
v -0.149953 -0.747705 -0.753858
v 0.000000 -0.747705 -0.768628
v 0.000000 -0.747705 0.768628
v -0.149953 -0.747705 0.753858
v 0.167112 -0.145191 0.840122
v 0.327798 -0.145191 0.791377
v 0.475888 -0.145191 0.712219
v 0.605696 -0.145191 0.605693
v 0.712219 -0.145191 0.475890
v 0.791373 -0.145191 0.327800
v 0.840122 -0.145191 0.167111
v 0.856580 -0.145191 0.000000
v 0.840122 -0.145191 -0.167111
v 0.791373 -0.145191 -0.327798
v 0.712219 -0.145191 -0.475890
v 0.605696 -0.145191 -0.605693
v 0.475888 -0.145191 -0.712219
v 0.327798 -0.145191 -0.791377
v 0.167112 -0.145191 -0.840122
v 0.000000 -0.145191 -0.856580
v -0.167112 -0.145191 -0.840122
v -0.327798 -0.145191 -0.791377
v -0.475888 -0.145191 -0.712219
v -0.605696 -0.145191 -0.605693
v -0.712219 -0.145191 -0.475890
v -0.791373 -0.145191 -0.327798
v -0.840122 -0.145191 -0.167111
v -0.856580 -0.145191 0.000000
v -0.840122 -0.145191 0.167111
v -0.791373 -0.145191 0.327800
v -0.712219 -0.145191 0.475890
v -0.605696 -0.145191 0.605693
v -0.475888 -0.145191 0.712219
v -0.327798 -0.145191 0.791377
v -0.167112 -0.145191 0.840122
v 0.000000 -0.145191 0.856580
v 0.149953 -0.388604 0.753858
v 0.294142 -0.388604 0.710120
v 0.427026 -0.388604 0.639092
v 0.543505 -0.388604 0.543501
v 0.639088 -0.388604 0.427026
v 0.710117 -0.388604 0.294142
v 0.753858 -0.388604 0.149952
v 0.768628 -0.388604 0.000000
v 0.753858 -0.388604 -0.149952
v 0.710117 -0.388604 -0.294142
v 0.639088 -0.388604 -0.427026
v 0.543505 -0.388604 -0.543501
v 0.427026 -0.388604 -0.639092
v 0.294142 -0.388604 -0.710120
v 0.149953 -0.388604 -0.753858
v 0.000000 -0.388604 -0.768628
v -0.149953 -0.388604 -0.753858
v -0.294142 -0.388604 -0.710120
v -0.427026 -0.388604 -0.639092
v -0.543505 -0.388604 -0.543501
v -0.639088 -0.388604 -0.427026
v -0.710117 -0.388604 -0.294142
v -0.753858 -0.388604 -0.149952
v -0.768628 -0.388604 0.000000
v -0.753858 -0.388604 0.149952
v -0.710117 -0.388604 0.294142
v -0.639088 -0.388604 0.427026
v -0.543505 -0.388604 0.543501
v -0.427026 -0.388604 0.639092
v -0.294142 -0.388604 0.710120
v -0.149953 -0.388604 0.753858
v 0.000000 -0.388604 0.768628
vn 0.1951 -0.0000 0.9808
vn 0.3827 -0.0000 0.9239
vn 0.5556 -0.0000 0.8315
vn 0.7071 -0.0000 0.7071
vn 0.8315 -0.0000 0.5556
vn 0.9239 -0.0000 0.3827
vn 0.9808 -0.0000 0.1951
vn 1.0000 -0.0000 -0.0000
vn 0.9808 -0.0000 -0.1951
vn 0.9239 -0.0000 -0.3827
vn 0.8315 -0.0000 -0.5556
vn 0.7071 -0.0000 -0.7071
vn 0.5556 -0.0000 -0.8315
vn 0.3827 -0.0000 -0.9239
vn 0.1951 -0.0000 -0.9808
vn -0.0000 -0.0000 -1.0000
vn -0.1951 -0.0000 -0.9808
vn -0.3827 -0.0000 -0.9239
vn -0.5556 -0.0000 -0.8315
vn -0.7071 -0.0000 -0.7071
vn -0.8315 -0.0000 -0.5556
vn -0.9239 -0.0000 -0.3827
vn -0.9808 -0.0000 -0.1951
vn -1.0000 -0.0000 -0.0000
vn -0.9808 -0.0000 0.1951
vn -0.9239 -0.0000 0.3827
vn -0.8315 -0.0000 0.5556
vn -0.7071 -0.0000 0.7071
vn -0.5556 -0.0000 0.8315
vn -0.3827 -0.0000 0.9239
vn -0.1951 -0.0000 0.9808
vn -0.0000 -0.0000 1.0000
vn 0.7071 -0.7071 -0.0000
vn -0.0000 -1.0000 -0.0000
vn -0.7071 -0.7071 -0.0000
vn 0.7072 -0.7070 -0.0000
vn -0.7072 -0.7070 -0.0000
vn 0.6022 -0.5827 0.5458
vn 0.6022 -0.5827 -0.5458
vn -0.6022 -0.5827 -0.5458
vn -0.0000 -0.6857 -0.7279
vn -0.0000 -0.6857 0.7279
vn -0.6022 -0.5827 0.5458
vn 0.1922 -0.1707 0.9664
vn 0.3771 -0.1707 0.9103
vn 0.5474 -0.1707 0.8193
vn 0.6967 -0.1707 0.6967
vn 0.8193 -0.1707 0.5474
vn 0.9103 -0.1707 0.3771
vn 0.9664 -0.1707 0.1922
vn 0.9853 -0.1707 -0.0000
vn 0.9664 -0.1707 -0.1922
vn 0.9103 -0.1707 -0.3771
vn 0.8193 -0.1707 -0.5474
vn 0.6967 -0.1707 -0.6967
vn 0.5474 -0.1707 -0.8193
vn 0.3771 -0.1707 -0.9103
vn 0.1922 -0.1707 -0.9664
vn -0.0000 -0.1707 -0.9853
vn -0.1922 -0.1707 -0.9664
vn -0.3771 -0.1707 -0.9103
vn -0.5474 -0.1707 -0.8193
vn -0.6967 -0.1707 -0.6967
vn -0.8193 -0.1707 -0.5474
vn -0.9103 -0.1707 -0.3771
vn -0.9664 -0.1707 -0.1922
vn -0.9853 -0.1707 -0.0000
vn -0.9664 -0.1707 0.1922
vn -0.9103 -0.1707 0.3771
vn -0.8193 -0.1707 0.5474
vn -0.6967 -0.1707 0.6967
vn -0.5474 -0.1707 0.8193
vn -0.3771 -0.1707 0.9103
vn -0.1922 -0.1707 0.9664
vn -0.0000 -0.1707 0.9853
vn 0.4133 -0.4224 0.8067
vn 0.2287 -0.8018 0.5521
vn 0.3320 -0.8018 0.4969
vn 0.4226 -0.8018 0.4226
vn 0.4969 -0.8018 0.3320
vn 0.5521 -0.8018 0.2287
vn 0.5861 -0.8018 0.1166
vn 0.5976 -0.8018 -0.0000
vn 0.5861 -0.8018 -0.1166
vn 0.5521 -0.8018 -0.2287
vn 0.4969 -0.8018 -0.3320
vn 0.4226 -0.8018 -0.4226
vn 0.3320 -0.8018 -0.4969
vn 0.2287 -0.8018 -0.5521
vn 0.4133 -0.4224 -0.8067
vn -0.0000 -0.1744 -0.9847
vn -0.4133 -0.4224 -0.8067
vn -0.2287 -0.8018 -0.5521
vn -0.3320 -0.8018 -0.4969
vn -0.4226 -0.8018 -0.4226
vn -0.4969 -0.8018 -0.3320
vn -0.5521 -0.8018 -0.2287
vn -0.5861 -0.8018 -0.1166
vn -0.5976 -0.8018 -0.0000
vn -0.5861 -0.8018 0.1166
vn -0.5521 -0.8018 0.2287
vn -0.4969 -0.8018 0.3320
vn -0.4226 -0.8018 0.4226
vn -0.3320 -0.8018 0.4969
vn -0.2287 -0.8018 0.5521
vn -0.4133 -0.4224 0.8067
vn -0.0000 -0.1744 0.9847
vt 0.642318 0.911108
vt 0.643204 0.911089
vt 0.642878 0.911586
vt 0.646398 0.904883
vt 0.645586 0.905257
vt 0.645688 0.904672
vt 0.641853 0.910539
vt 0.642729 0.910693
vt 0.648759 0.908395
vt 0.648100 0.907775
vt 0.648683 0.907654
vt 0.647067 0.905219
vt 0.646185 0.905435
vt 0.643747 0.911381
vt 0.643533 0.911924
vt 0.648482 0.906933
vt 0.647628 0.906614
vt 0.648123 0.906272
vt 0.644968 0.905202
vt 0.644950 0.904607
vt 0.647923 0.907170
vt 0.925493 0.178014
vt 0.924808 0.177927
vt 0.925575 0.175179
vt 0.645702 0.912126
vt 0.644959 0.911613
vt 0.645577 0.911539
vt 0.926182 0.177967
vt 0.643534 0.904928
vt 0.643242 0.905754
vt 0.642900 0.905279
vt 0.922302 0.175745
vt 0.922121 0.175079
vt 0.644235 0.912138
vt 0.644967 0.912206
vt 0.926849 0.177785
vt 0.647641 0.905699
vt 0.646740 0.905728
vt 0.927467 0.177477
vt 0.644224 0.904708
vt 0.643774 0.905456
vt 0.928014 0.177055
vt 0.644340 0.911559
vt 0.926478 0.167765
vt 0.927133 0.167985
vt 0.925711 0.170513
vt 0.644356 0.905271
vt 0.641317 0.909176
vt 0.642060 0.909660
vt 0.641509 0.909886
vt 0.925793 0.167678
vt 0.647227 0.906127
vt 0.648688 0.909140
vt 0.648160 0.908402
vt 0.928984 0.169947
vt 0.929166 0.170613
vt 0.928467 0.176534
vt 0.648118 0.910508
vt 0.647909 0.909627
vt 0.648459 0.909847
vt 0.928677 0.169328
vt 0.924153 0.177707
vt 0.923553 0.177364
vt 0.647639 0.911076
vt 0.647614 0.910181
vt 0.928254 0.168782
vt 0.928811 0.175934
vt 0.647075 0.911559
vt 0.647214 0.910665
vt 0.923272 0.168637
vt 0.923819 0.168215
vt 0.646417 0.911909
vt 0.646733 0.911065
vt 0.929030 0.175279
vt 0.646180 0.911359
vt 0.641344 0.904744
vt 0.641904 0.906330
vt 0.640673 0.905494
vt 0.922168 0.173433
vt 0.925643 0.172846
vt 0.925623 0.173533
vt 0.646012 0.913613
vt 0.647001 0.913265
vt 0.929118 0.172259
vt 0.925663 0.172159
vt 0.642068 0.912785
vt 0.639813 0.914254
vt 0.641222 0.912181
vt 0.642939 0.903624
vt 0.642112 0.904148
vt 0.646969 0.903436
vt 0.649247 0.901877
vt 0.647871 0.903989
vt 0.927733 0.168328
vt 0.643967 0.913598
vt 0.644977 0.913653
vt 0.649386 0.905446
vt 0.922819 0.169158
vt 0.648742 0.904589
vt 0.649848 0.910426
vt 0.922476 0.169758
vt 0.643891 0.903251
vt 0.639855 0.909448
vt 0.641244 0.908440
vt 0.929078 0.173634
vt 0.929166 0.172948
vt 0.642947 0.913345
vt 0.639871 0.907418
vt 0.639813 0.908431
vt 0.922208 0.172059
vt 0.922121 0.172744
vt 0.648703 0.912137
vt 0.649319 0.911311
vt 0.922256 0.170413
vt 0.640130 0.906394
vt 0.641331 0.907699
vt 0.641559 0.906985
vt 0.647875 0.912748
vt 0.650137 0.902457
vt 0.645931 0.903201
vt 0.644912 0.903174
vt 0.650193 0.907365
vt 0.649835 0.906378
vt 0.642779 0.906154
vt 0.642352 0.905757
vt 0.922610 0.176364
vt 0.923032 0.176910
vt 0.648096 0.909027
vt 0.642343 0.910210
vt 0.925104 0.167726
vt 0.641894 0.909063
vt 0.924437 0.167907
vt 0.641845 0.908441
vt 0.641922 0.907817
vt 0.642397 0.906646
vt 0.642121 0.907213
vt 0.650245 0.908419
vt 0.640679 0.914840
vt 0.650098 0.909427
vt 0.640185 0.910410
vt 0.640606 0.911328
vt 0.648350 0.901298
vt 0.641552 0.915425
s 1
f 60/1/60 16/2/16 59/3/59
f 74/4/74 30/5/30 73/6/73
f 61/7/61 17/8/17 60/1/60
f 48/9/48 4/10/4 47/11/47
f 75/12/75 31/13/31 74/4/74
f 59/3/59 15/14/15 58/15/58
f 46/16/46 2/17/2 45/18/45
f 73/6/73 29/19/29 72/20/72
f 47/11/47 3/21/3 46/16/46
f 99/22/99 98/23/98 37/24/37
f 55/25/55 13/26/13 12/27/12
f 100/28/100 99/22/99 37/24/37
f 70/29/70 26/30/26 69/31/69
f 93/32/93 92/33/92 37/24/37
f 57/34/57 13/26/13 56/35/56
f 101/36/101 100/28/100 37/24/37
f 44/37/44 32/38/32 75/12/75
f 102/39/102 101/36/101 37/24/37
f 71/40/71 27/41/27 70/29/70
f 103/42/103 102/39/102 37/24/37
f 58/15/58 14/43/14 57/34/57
f 82/44/82 81/45/81 36/46/36
f 72/20/72 28/47/28 71/40/71
f 63/48/63 19/49/19 62/50/62
f 83/51/83 82/44/82 36/46/36
f 45/18/45 1/52/1 44/37/44
f 49/53/49 5/54/5 48/9/48
f 77/55/77 76/56/76 36/46/36
f 104/57/104 103/42/103 37/24/37
f 51/58/51 7/59/7 50/60/50
f 78/61/78 77/55/77 36/46/36
f 97/62/97 96/63/96 37/24/37
f 52/64/52 8/65/8 51/58/51
f 79/66/79 78/61/78 36/46/36
f 105/67/105 104/57/104 37/24/37
f 53/68/53 9/69/9 52/64/52
f 87/70/87 86/71/86 36/46/36
f 98/23/98 97/62/97 37/24/37
f 54/72/54 10/73/10 53/68/53
f 106/74/106 105/67/105 37/24/37
f 55/25/55 11/75/11 54/72/54
f 100/76/100 67/77/67 99/78/99
f 40/79/40 34/80/34 35/81/35
f 87/82/87 54/72/54 86/83/86
f 38/84/38 34/80/34 33/85/33
f 87/82/87 56/35/56 55/25/55
f 91/86/91 40/87/40 92/88/92
f 102/89/102 69/31/69 101/90/101
f 106/91/106 42/92/42 107/93/107
f 81/45/81 80/94/80 36/46/36
f 89/95/89 56/35/56 88/96/88
f 77/97/77 46/16/46 45/18/45
f 88/98/88 87/70/87 36/46/36
f 76/99/76 75/12/75 107/93/107
f 82/100/82 51/58/51 50/60/50
f 89/101/89 88/98/88 36/46/36
f 103/102/103 70/29/70 102/89/102
f 95/103/95 64/104/64 63/48/63
f 43/105/43 34/80/34 42/106/42
f 90/107/90 57/34/57 89/95/89
f 97/108/97 64/104/64 96/109/96
f 39/110/39 34/80/34 41/111/41
f 76/99/76 45/18/45 44/37/44
f 84/112/84 51/58/51 83/113/83
f 36/46/36 39/110/39 90/114/90
f 98/115/98 65/116/65 97/108/97
f 37/24/37 43/105/43 106/74/106
f 98/115/98 67/77/67 66/117/66
f 92/33/92 35/81/35 37/24/37
f 84/112/84 53/68/53 52/64/52
f 76/56/76 33/85/33 36/46/36
f 86/83/86 53/68/53 85/118/85
f 107/93/107 38/119/38 76/99/76
f 105/120/105 72/20/72 104/121/104
f 92/88/92 59/3/59 91/86/91
f 92/88/92 61/7/61 60/1/60
f 79/122/79 46/16/46 78/123/78
f 106/91/106 73/6/73 105/120/105
f 69/31/69 25/124/25 68/125/68
f 94/126/94 93/32/93 37/24/37
f 95/127/95 94/126/94 37/24/37
f 96/63/96 95/127/95 37/24/37
f 50/60/50 6/128/6 49/53/49
f 90/114/90 89/101/89 36/46/36
f 62/50/62 18/129/18 61/7/61
f 84/130/84 83/51/83 36/46/36
f 64/104/64 20/131/20 63/48/63
f 85/132/85 84/130/84 36/46/36
f 65/116/65 21/133/21 64/104/64
f 86/71/86 85/132/85 36/46/36
f 66/117/66 22/134/22 65/116/65
f 80/94/80 79/66/79 36/46/36
f 66/117/66 24/135/24 23/136/23
f 68/125/68 24/135/24 67/77/67
f 100/76/100 69/31/69 68/125/68
f 80/137/80 49/53/49 48/9/48
f 79/122/79 48/9/48 47/11/47
f 90/107/90 41/138/41 91/86/91
f 82/100/82 49/53/49 81/139/81
f 95/103/95 62/50/62 94/140/94
f 103/102/103 72/20/72 71/40/71
f 106/91/106 75/12/75 74/4/74
f 93/141/93 62/50/62 61/7/61
f 90/107/90 59/3/59 58/15/58
f 60/1/60 17/8/17 16/2/16
f 74/4/74 31/13/31 30/5/30
f 61/7/61 18/129/18 17/8/17
f 48/9/48 5/54/5 4/10/4
f 75/12/75 32/38/32 31/13/31
f 59/3/59 16/2/16 15/14/15
f 46/16/46 3/21/3 2/17/2
f 73/6/73 30/5/30 29/19/29
f 47/11/47 4/10/4 3/21/3
f 55/25/55 56/35/56 13/26/13
f 70/29/70 27/41/27 26/30/26
f 57/34/57 14/43/14 13/26/13
f 44/37/44 1/52/1 32/38/32
f 71/40/71 28/47/28 27/41/27
f 58/15/58 15/14/15 14/43/14
f 72/20/72 29/19/29 28/47/28
f 63/48/63 20/131/20 19/49/19
f 45/18/45 2/17/2 1/52/1
f 49/53/49 6/128/6 5/54/5
f 51/58/51 8/65/8 7/59/7
f 52/64/52 9/69/9 8/65/8
f 53/68/53 10/73/10 9/69/9
f 54/72/54 11/75/11 10/73/10
f 55/25/55 12/27/12 11/75/11
f 100/76/100 68/125/68 67/77/67
f 40/79/40 41/111/41 34/80/34
f 87/82/87 55/25/55 54/72/54
f 38/84/38 42/106/42 34/80/34
f 87/82/87 88/96/88 56/35/56
f 91/86/91 41/138/41 40/87/40
f 102/89/102 70/29/70 69/31/69
f 106/91/106 43/142/43 42/92/42
f 89/95/89 57/34/57 56/35/56
f 77/97/77 78/123/78 46/16/46
f 76/99/76 44/37/44 75/12/75
f 82/100/82 83/113/83 51/58/51
f 103/102/103 71/40/71 70/29/70
f 95/103/95 96/109/96 64/104/64
f 43/105/43 35/81/35 34/80/34
f 90/107/90 58/15/58 57/34/57
f 97/108/97 65/116/65 64/104/64
f 39/110/39 33/85/33 34/80/34
f 76/99/76 77/97/77 45/18/45
f 84/112/84 52/64/52 51/58/51
f 36/46/36 33/85/33 39/110/39
f 98/115/98 66/117/66 65/116/65
f 37/24/37 35/81/35 43/105/43
f 98/115/98 99/78/99 67/77/67
f 92/33/92 40/79/40 35/81/35
f 84/112/84 85/118/85 53/68/53
f 76/56/76 38/84/38 33/85/33
f 86/83/86 54/72/54 53/68/53
f 107/93/107 42/92/42 38/119/38
f 105/120/105 73/6/73 72/20/72
f 92/88/92 60/1/60 59/3/59
f 92/88/92 93/141/93 61/7/61
f 79/122/79 47/11/47 46/16/46
f 106/91/106 74/4/74 73/6/73
f 69/31/69 26/30/26 25/124/25
f 50/60/50 7/59/7 6/128/6
f 62/50/62 19/49/19 18/129/18
f 64/104/64 21/133/21 20/131/20
f 65/116/65 22/134/22 21/133/21
f 66/117/66 23/136/23 22/134/22
f 66/117/66 67/77/67 24/135/24
f 68/125/68 25/124/25 24/135/24
f 100/76/100 101/90/101 69/31/69
f 80/137/80 81/139/81 49/53/49
f 79/122/79 80/137/80 48/9/48
f 90/107/90 39/143/39 41/138/41
f 82/100/82 50/60/50 49/53/49
f 95/103/95 63/48/63 62/50/62
f 103/102/103 104/121/104 72/20/72
f 106/91/106 107/93/107 75/12/75
f 93/141/93 94/140/94 62/50/62
f 90/107/90 91/86/91 59/3/59
